<?xml version="1.0" encoding="utf-8"?>
<!-- Generator: Adobe Illustrator 18.1.0, SVG Export Plug-In . SVG Version: 6.00 Build 0)  -->
<svg version="1.1" id="Layer_1" xmlns="http://www.w3.org/2000/svg" xmlns:xlink="http://www.w3.org/1999/xlink" x="0px" y="0px"
	 width="196px" height="65px" viewBox="0 0 196 65" enable-background="new 0 0 196 65" xml:space="preserve">
<g>
	<path fill="#FFFFFF" d="M79.4,19.8c0,0.2,0.1,0.3,0.2,0.3c1.5,2,2.2,4.2,2.4,6.6c0.3,6-3.8,11.5-9.8,12.8c-0.1,0-0.1,0-0.2,0
		c-0.1,0-0.2,0.1-0.2,0.2c0,0.6,0,1.2,0,1.9c0,0.2,0.2,0.2,0.3,0.3c0.7,0.2,1.4,0.4,2.1,0.7c3.6,1.7,5.8,4.5,6.4,8.5
		c1,6-2.9,11.6-8.8,12.8c-5,1.1-10-1.3-12.3-5.7C56,51.8,59.6,43.8,66.8,42c0.4-0.1,0.3,0,0.3-0.4c0-0.5,0-1,0-1.6
		c0-0.3,0-0.3-0.3-0.4c-1.7-0.4-3.3-1-4.6-2.1c-2.9-2.1-4.7-5-5.1-8.6c-0.4-3.6,0.5-6.8,2.9-9.6c1.9-2.1,4.3-3.4,7.1-3.9
		c0.8-0.2,1.7-0.2,2.5-0.2c3.8,0,7.5,0,11.3,0c1,0,1.9,0.6,2.2,1.5c0.6,1.5-0.5,3.1-2.1,3.1C80.5,19.8,80,19.8,79.4,19.8z
		 M69.5,19.8c-0.3,0-0.5,0-0.8,0.1c-2.2,0.2-4,1.1-5.4,2.8c-1.5,1.9-2,4-1.5,6.3c0.8,4.1,4.8,7,9.2,6.1c3.8-0.7,6.4-4.2,6.3-7.8
		c0-2.3-1-4.3-2.8-5.7C73.1,20.4,71.4,19.9,69.5,19.8z M69.4,59.6c3.5,0,6.5-2.6,6.7-6.3c0.2-3.6-2.7-6.8-6.3-7
		c-3.6-0.2-6.8,2.5-7,6.3C62.6,56.5,65.7,59.6,69.4,59.6z"/>
	<path fill="#FFFFFF" d="M177.4,33.6c0,2.5,0,5,0,7.5c0,1-0.6,1.9-1.5,2.2c-1.5,0.5-3.1-0.5-3.1-2.1c0-0.1,0-0.2,0-0.3
		c0-4.3,0-8.7,0-13c0-1.1-0.1-2.2-0.3-3.3c-0.2-0.7-0.4-1.4-0.8-2.1c-0.8-1.5-2-2.6-3.7-3.1c-1.6-0.5-3.3-0.5-4.9,0
		c-1.7,0.5-3,1.6-3.8,3.3c-0.5,1.1-0.8,2.2-0.9,3.4c-0.1,0.7-0.1,1.4-0.1,2c0,4.3,0,8.6,0,13c0,1-0.6,1.9-1.5,2.2
		c-1.5,0.6-3.2-0.5-3.2-2.1c0-4.7,0-9.4,0-14.1c0-2.4,0.5-4.7,1.6-6.9c1.6-3.1,4.2-5,7.6-5.6c2.2-0.4,4.3-0.3,6.4,0.3
		c2.8,0.8,4.8,2.5,6.2,5c0.8,1.5,1.3,3.1,1.6,4.8c0.2,1.1,0.2,2.2,0.2,3.3C177.4,29.9,177.4,31.8,177.4,33.6z"/>
	<path fill="#FFFFFF" d="M148.2,19.6c-0.3,0.1-0.7,0.2-1,0.2c-1.2,0.3-2.5,0.5-3.7,0.7c-0.2,0-0.3,0.1-0.5-0.1
		c-0.9-0.7-2-1.1-3.1-1.3c-1.5-0.2-2.9-0.2-4.3,0.3c-2.1,0.7-3.5,2-4.5,4c-0.7,1.4-1,2.8-1.2,4.3c-0.2,1.9,0,3.8,0.5,5.6
		c0.5,1.6,1.3,3,2.6,4c1.1,0.9,2.3,1.3,3.7,1.6c1.1,0.2,2.3,0.3,3.4,0.1c2.4-0.3,4.4-1.4,5.9-3.4c0.6-0.8,1.4-1.1,2.3-0.9
		c1,0.2,1.6,0.8,1.8,1.8c0.1,0.7,0,1.3-0.5,1.9c-0.8,1.1-1.7,2-2.8,2.8c-2.2,1.6-4.6,2.4-7.3,2.5c-2.1,0.1-4.2-0.2-6.2-0.9
		c-3.1-1.2-5.3-3.3-6.7-6.3c-0.7-1.6-1.1-3.2-1.4-5c-0.2-1.2-0.2-2.5-0.1-3.7c0.3-3.7,1.5-7,4.1-9.8c1.6-1.7,3.5-2.8,5.8-3.3
		c2.6-0.6,5.1-0.5,7.6,0.3c2.3,0.8,4.1,2.2,5.4,4.2C148.1,19.4,148.2,19.5,148.2,19.6z"/>
	<path fill="#FFFFFF" d="M101.6,28.7c0-0.6,0-1.2,0-1.8c-0.1-1.5-0.3-3-0.9-4.5c-0.4-0.9-0.9-1.7-1.7-2.3c-1.1-0.9-2.5-1.1-3.9-1
		c-2,0.2-3.4,1.3-4.2,3.1c-0.5,1.2-0.8,2.4-0.9,3.6c-0.1,1.5-0.1,3-0.1,4.6c0,0.5,0,0.5-0.5,0.6c-1.3,0.3-2.6,0.5-3.9,0.8
		c-0.1,0-0.1,0-0.2,0c-0.1-0.1,0-0.1,0-0.2c0-1.8-0.1-3.6,0-5.4c0.1-2.2,0.5-4.3,1.5-6.2c1.2-2.4,2.9-4.1,5.4-5
		c1.6-0.6,3.2-0.7,4.9-0.5c1.6,0.2,3.2,0.7,4.5,1.7c0.8,0.6,1.5,1.3,2.1,2.1c0.1,0.1,0.1,0.2,0.2,0.3c0,0,0,0,0.1,0
		c0.1-0.1,0.1-0.2,0.2-0.3c1.6-2.2,3.9-3.5,6.6-3.8c1.7-0.2,3.4-0.1,5,0.6c2.3,0.9,3.9,2.5,5.1,4.6c0.8,1.5,1.2,3.1,1.5,4.7
		c0,0.2,0,0.3-0.2,0.3c-1.4,0.3-2.7,0.5-4.1,0.8c-0.3,0.1-0.3,0-0.3-0.2c-0.1-0.9-0.3-1.8-0.7-2.7c-0.3-0.9-0.8-1.6-1.5-2.2
		c-1.2-1.1-2.6-1.4-4.1-1.2c-2.3,0.2-3.6,1.5-4.4,3.6c-0.5,1.1-0.7,2.3-0.7,3.6c0,0.4,0,0.9-0.1,1.3c0,0.1,0,0.3-0.2,0.3
		c-1.4,0.3-2.9,0.6-4.3,0.8C101.7,28.7,101.7,28.7,101.6,28.7z"/>
	<path fill="#FFFFFF" d="M23.7,25c-1.1,0.2-2.1,0.4-3.2,0.6c-0.7,0.1-1.4,0.3-2.1,0.4c-0.1,0-0.2,0-0.4,0c-1.4-0.9-2.8-1.4-4.3-2
		c-1.6-0.6-3.2-1.1-4.8-1.7C7.5,21.7,6,21,4.7,20c-2-1.4-3.3-3.2-3.9-5.6c-0.5-2-0.6-4,0.1-6c0.7-2.2,2.1-4,4-5.3
		c1.8-1.2,3.8-1.9,6-2.2c2.8-0.4,5.5,0,8.1,1.1c1.8,0.8,3.4,1.8,4.7,3.2c0.7,0.7,0.8,1.6,0.4,2.5c-0.4,0.9-1.1,1.4-2.1,1.4
		c-0.6,0-1.2-0.2-1.6-0.7c-1.5-1.6-3.3-2.5-5.4-2.8C12.4,5.2,10.1,5.4,8,6.6c-0.8,0.4-1.5,1-2,1.7C5.2,9.5,5,10.7,5.1,12
		c0.1,1.2,0.4,2.3,1.2,3.2c0.6,0.7,1.3,1.2,2,1.7c1.1,0.7,2.4,1.1,3.6,1.6c1.6,0.6,3.3,1.1,4.9,1.8c1.4,0.6,2.8,1.2,4.1,2.1
		c1,0.7,1.9,1.5,2.7,2.5C23.6,24.9,23.6,24.9,23.7,25z"/>
	<path fill="#FFFFFF" d="M180.9,22.8c0-4.4,0-8.8,0-13.2c0-0.3,0-0.6,0.1-0.9c0.3-1.1,1.4-1.8,2.6-1.7c1.1,0.1,1.9,1.1,2,2.2
		c0,1.7,0,3.5,0,5.2c0,0.1,0,0.3,0,0.4c0,0.3,0,0.3,0.3,0.3c2,0,3.9,0,5.9,0c0.5,0,0.9,0.1,1.3,0.3c0.9,0.5,1.4,1.5,1.1,2.6
		c-0.2,1-1.1,1.7-2.1,1.8c-0.1,0-0.3,0-0.4,0c-1.9,0-3.7,0-5.6,0c-0.1,0-0.2,0-0.3,0c-0.2,0-0.3,0-0.2,0.2c0,0.1,0,0.1,0,0.2
		c0,5.1,0,10.2,0,15.4c0,0.5,0.1,1,0.2,1.4c0.1,0.3,0.3,0.6,0.5,0.8c0.4,0.4,0.8,0.6,1.3,0.6c1.7,0,3.4,0,5.1,0
		c1.1,0,1.9,0.7,2.2,1.6c0.5,1.5-0.6,3-2.3,3c-1.7,0-3.4,0-5.1,0c-1.8,0-3.3-0.7-4.6-1.9c-1-1-1.6-2.3-1.9-3.7
		c-0.1-0.7-0.2-1.4-0.2-2.1C180.9,31.3,180.9,27,180.9,22.8z"/>
	<path fill="#FFFFFF" d="M33.5,27.9c0.1,0.1,0,0.2,0,0.2c-0.1,1.8,0.1,3.7,0.6,5.4c0.4,1.4,1.2,2.6,2.3,3.6c0.9,0.8,2,1.3,3.2,1.6
		c1.7,0.4,3.4,0.5,5.2,0.1c2-0.5,3.7-1.6,5-3.2c0.6-0.8,1.4-1.1,2.3-0.9c1,0.2,1.6,0.8,1.8,1.8c0.2,0.7,0,1.3-0.4,1.9
		c-0.7,0.9-1.5,1.7-2.4,2.4c-2.3,1.8-4.9,2.8-7.8,2.9c-2.2,0.1-4.4-0.2-6.4-1c-3.3-1.3-5.5-3.7-6.8-7c-0.6-1.6-1-3.3-1.1-5.1
		c0-0.6-0.1-1.2-0.1-1.7c0-0.2,0-0.3,0.2-0.3C30.5,28.4,32,28.2,33.5,27.9C33.5,27.9,33.5,27.9,33.5,27.9z"/>
	<path fill="#FFFFFF" d="M25.4,29.4c0.1,0.8,0.2,1.6,0.1,2.4c-0.1,1.5-0.3,2.9-0.8,4.3c-1.1,2.9-3.2,5-6,6.2c-2.3,1-4.8,1.4-7.3,1.2
		c-1.9-0.2-3.6-0.7-5.3-1.5c-1.9-0.9-3.6-2-5.1-3.4c-0.5-0.4-0.8-0.9-0.9-1.6c-0.2-1.3,0.9-2.6,2.2-2.6c0.7,0,1.2,0.2,1.7,0.6
		c2,1.9,4.4,3.2,7.2,3.6c2.3,0.4,4.5,0,6.6-1.2c1.7-1,2.7-2.5,3.1-4.5c0.2-0.9,0.2-1.8,0.1-2.7c0-0.3,0-0.3,0.2-0.3
		c1.4-0.3,2.8-0.5,4.2-0.8C25.3,29.4,25.4,29.4,25.4,29.4z"/>
	<path fill="#FFFFFF" d="M51.9,19.6c-0.6,0.1-1.2,0.2-1.8,0.4c-1,0.2-2,0.4-3.1,0.6c-0.1,0-0.2,0-0.3-0.1c-0.9-0.7-2-1.1-3.1-1.3
		c-1.3-0.2-2.7-0.1-4,0.2c-1.8,0.5-3.2,1.5-4.2,3.1c-0.2,0.2-0.3,0.4-0.6,0.4c-1.6,0.3-3.2,0.6-4.8,0.9c-0.1,0-0.1,0-0.2,0
		c0-0.1,0-0.2,0.1-0.3c0.7-2.1,1.8-4.1,3.5-5.7c1.8-1.8,4-2.9,6.6-3.2c2.1-0.3,4.2-0.2,6.2,0.4c2.4,0.7,4.3,2.1,5.7,4.2
		C51.8,19.3,51.9,19.4,51.9,19.6z"/>
	<path fill="#FFFFFF" d="M54,27.2c0,0.4,0,0.8,0,1.2c0,0.2-0.1,0.3-0.3,0.3c-1,0.2-2,0.4-3,0.6c-2.4,0.5-4.7,0.9-7.1,1.4
		c-1,0.2-2.1,0.4-3.1,0.6c-1.2,0.2-2.4-0.5-2.7-1.7c-0.3-1.2,0.4-2.4,1.6-2.8c0.7-0.2,1.4-0.3,2.1-0.4c2.8-0.5,5.5-1.1,8.3-1.6
		c1.2-0.2,2.3-0.5,3.5-0.7c0.3-0.1,0.3,0,0.4,0.3C53.9,25.2,54,26.2,54,27.2z"/>
	<path fill="#FFFFFF" d="M150.3,27.2c0,0.4,0,0.7,0,1.1c0,0.3,0,0.3-0.3,0.4c-1.1,0.2-2.1,0.4-3.2,0.6c-3.2,0.6-6.3,1.2-9.5,1.8
		c-0.6,0.1-1.2,0.2-1.7-0.1c-0.8-0.4-1.2-1-1.3-1.9c-0.1-0.9,0.3-1.6,1-2.1c0.2-0.1,0.4-0.2,0.6-0.3c3.3-0.6,6.6-1.3,9.8-1.9
		c1.3-0.3,2.7-0.5,4-0.8c0.5-0.1,0.4-0.2,0.5,0.4C150.2,25.4,150.3,26.3,150.3,27.2z"/>
	<path fill="#FFFFFF" d="M122.6,35.4c0,1.9,0,3.8,0,5.7c0,1-0.5,1.8-1.4,2.2c-1.3,0.6-2.9-0.2-3.2-1.7c0-0.2-0.1-0.5-0.1-0.7
		c0-3.4,0-6.9,0-10.3c0-0.1,0-0.1,0-0.2c0-0.2,0.1-0.2,0.2-0.2c0.5-0.1,1.1-0.2,1.6-0.3c0.9-0.2,1.8-0.3,2.6-0.5
		c0.2,0,0.2,0,0.2,0.2c0,0.1,0,0.2,0,0.3C122.6,31.7,122.6,33.6,122.6,35.4z"/>
	<path fill="#FFFFFF" d="M106.2,32.6c0.1,0.1,0,0.3,0,0.4c0,2.7,0,5.5,0,8.2c0,1-0.7,2.2-2.1,2.3c-1.2,0.1-2.3-0.7-2.5-1.9
		c0-0.1,0-0.2,0-0.4c0-2.5,0-4.9,0-7.4c0-0.3,0-0.3,0.3-0.4c1.4-0.3,2.7-0.5,4.1-0.8C106.1,32.6,106.1,32.6,106.2,32.6z"/>
	<path fill="#FFFFFF" d="M89.9,35.8c0.1,0.1,0,0.2,0,0.3c0,1.7,0,3.4,0,5.1c0,1.4-1.2,2.4-2.5,2.3c-1.1-0.1-2.1-1.1-2.1-2.2
		c0-1.5,0-2.9,0-4.4c0-0.2,0.1-0.3,0.3-0.3c1.4-0.3,2.8-0.5,4.2-0.8C89.8,35.8,89.8,35.8,89.9,35.8z"/>
	<path fill="#FFFFFF" d="M108.1,53.4c1-0.8,2-0.7,2.6,0.1c0.1-0.1,0.2-0.2,0.4-0.3c0.5-0.4,1.1-0.5,1.7-0.3c0.5,0.1,0.8,0.4,0.9,0.9
		c0.1,0.2,0.1,0.4,0.1,0.6c0,1.1,0,2.2,0,3.3c0,0.3,0,0.3-0.3,0.3c0,0,0,0,0,0c-0.4,0-0.4,0-0.4-0.4c0-1,0-2.1,0-3.1
		c0-0.1,0-0.2,0-0.3c-0.1-0.4-0.3-0.6-0.7-0.7c-0.3,0-0.6,0-0.8,0.1c-0.4,0.1-0.6,0.4-0.5,0.8c0,1.1,0,2.2,0,3.2
		c0,0.3,0,0.3-0.4,0.3c0,0-0.1,0-0.1,0c-0.2,0-0.2-0.1-0.2-0.3c0-1,0-2.1,0-3.1c0-0.2,0-0.4-0.1-0.6c-0.1-0.3-0.3-0.5-0.6-0.5
		c-0.5-0.1-1,0.1-1.4,0.3c-0.1,0.1-0.1,0.2-0.1,0.3c0,0.6,0,1.2,0,1.8s0,1.2,0,1.8c0,0.3,0,0.3-0.3,0.3c-0.6,0-0.5,0.1-0.5-0.5
		c0-1.4,0-2.8,0-4.2c0-0.4,0-0.4,0.4-0.4c0.5,0,0.4,0,0.4,0.3C108.1,53.3,108.1,53.3,108.1,53.4z"/>
	<path fill="#FFFFFF" d="M183.1,53.6c0.3,0.4,0.3,0.9,0.3,1.4c-0.1,0.6-0.6,1.1-1.3,1.2c-0.3,0-0.6,0-0.8,0c-0.2,0-0.2,0-0.3,0.1
		c-0.1,0.2-0.2,0.3-0.2,0.5c0,0.3,0.1,0.4,0.3,0.4c0.5,0,1,0,1.5,0c0.2,0,0.4,0,0.6,0.1c0.5,0.1,0.7,0.4,0.8,0.9
		c0.2,1-0.3,1.8-1.3,2c-0.6,0.2-1.2,0.2-1.8,0c-1-0.3-1.4-1.4-0.8-2.2c0.1-0.2,0.2-0.4,0.1-0.6c-0.1-0.2-0.1-0.5,0-0.7
		c0.1-0.2,0.2-0.4,0.3-0.6c0.1-0.1,0.1-0.2,0-0.2c-0.5-0.4-0.6-1-0.4-1.6c0.2-0.8,0.8-1.3,1.7-1.2c0.7,0,1.3,0.1,2,0.1
		c0.1,0,0.2,0,0.2,0.1c0,0.2-0.1,0.4-0.2,0.4C183.5,53.5,183.3,53.5,183.1,53.6z M181.7,57.8L181.7,57.8c-0.2,0-0.5,0-0.7,0
		c-0.4,0-0.4,0.1-0.5,0.4c0,0.1-0.1,0.3,0,0.4c0,0.5,0.2,0.7,0.7,0.9c0.4,0.1,0.9,0.1,1.3,0c0.5-0.1,0.8-0.5,0.7-1.1
		c0-0.4-0.2-0.6-0.6-0.6C182.3,57.8,182,57.8,181.7,57.8z M181.7,53.4c-0.7,0-1,0.4-1,1.1c0,0.7,0.4,1.1,1,1.1c0.7,0,1-0.4,1-1
		C182.7,53.8,182.3,53.4,181.7,53.4z"/>
	<path fill="#FFFFFF" d="M155.6,53.4c0.4-0.3,0.9-0.5,1.4-0.6c0.3,0,0.5,0,0.7,0.1c0.5,0.2,0.8,0.6,0.9,1.1c0,0.2,0,0.3,0,0.5
		c0,1.1,0,2.1,0,3.2c0,0.4,0,0.4-0.4,0.4c0,0,0,0-0.1,0c-0.3,0-0.3,0-0.3-0.3c0-0.9,0-1.9,0-2.8c0-0.1,0-0.3,0-0.4
		c0-0.7-0.3-1-1.1-1c-0.3,0-0.7,0.1-1,0.3c-0.2,0.1-0.3,0.2-0.3,0.4c0,1.1,0,2.2,0,3.3c0,0.6,0.1,0.5-0.6,0.5c-0.1,0-0.2,0-0.2-0.2
		c0-0.1,0-0.2,0-0.3c0-2.1,0-4.2,0-6.3c0-0.1,0-0.1,0-0.2c0-0.3,0-0.3,0.3-0.3c0.5,0,0.5-0.1,0.5,0.4c0,0.6,0,1.2,0,1.7
		C155.6,53.1,155.5,53.2,155.6,53.4z"/>
	<path fill="#FFFFFF" d="M115.8,53.7c-0.2-0.7-0.2-0.7,0.5-0.8c0.7-0.1,1.4-0.1,2.1,0.2c0.4,0.2,0.4,0.2,0.4,0.6c0,1,0,2.1,0,3.1
		c0,0.1,0,0.2,0,0.3c0,0.2,0.1,0.3,0.3,0.3c0.1,0,0.1,0,0.2,0c0.1,0,0.3-0.1,0.4,0.1c0.1,0.2-0.1,0.5-0.3,0.6
		c-0.3,0.1-0.9,0-1.1-0.2c0,0-0.1-0.1-0.1-0.2c0-0.1-0.1-0.1-0.2,0c-0.1,0.1-0.2,0.1-0.2,0.2c-0.5,0.3-1.1,0.4-1.7,0.2
		c-0.5-0.1-0.8-0.5-0.9-1c0-0.3,0-0.5,0-0.8c0.1-0.4,0.4-0.7,0.7-0.8c0.4-0.1,0.7-0.2,1.1-0.2c0.2,0,0.4,0,0.7,0
		c0.3,0,0.3,0,0.3-0.3c0-0.3,0-0.6,0-1c0-0.2-0.1-0.3-0.2-0.3c-0.6-0.2-1.1-0.2-1.7,0C116.1,53.7,115.9,53.7,115.8,53.7z
		 M117.4,55.8C117.4,55.8,117.4,55.8,117.4,55.8c-0.2,0-0.5,0-0.7,0.1c-0.4,0.1-0.6,0.3-0.7,0.7c0,0.1,0,0.2,0,0.3
		c0,0.5,0.2,0.7,0.7,0.7c0.4,0,0.9-0.1,1.2-0.3c0.1-0.1,0.2-0.1,0.2-0.3c0-0.3,0-0.6,0-1c0-0.2-0.1-0.2-0.2-0.2
		C117.7,55.8,117.5,55.8,117.4,55.8z"/>
	<path fill="#FFFFFF" d="M165.9,55.5c0-0.5,0.1-1,0.2-1.4c0.5-1.2,2-1.7,3.1-1c0.4,0.3,0.6,0.7,0.8,1.1c0.2,0.8,0.2,1.5,0,2.3
		c-0.4,1.3-1.8,2-3,1.4c-0.6-0.3-0.9-0.9-1-1.5C165.9,56.1,165.8,55.8,165.9,55.5z M166.7,55.5c0,0.4,0,0.8,0.1,1.1
		c0.2,0.6,0.5,0.8,1.1,0.8c0.7,0,1.1-0.2,1.2-0.8c0.2-0.8,0.2-1.6,0-2.3c-0.2-0.6-0.6-0.8-1.2-0.8c-0.6,0-1,0.3-1.2,0.8
		C166.7,54.7,166.7,55.1,166.7,55.5z"/>
	<path fill="#FFFFFF" d="M178.4,55.5c0,0.4,0,0.9-0.2,1.3c-0.3,0.8-0.9,1.3-1.8,1.3c-0.2,0-0.4,0-0.7,0c-0.7-0.1-1.1-0.5-1.4-1.2
		c-0.3-0.9-0.4-1.8,0-2.7c0.6-1.5,2.2-1.6,3.1-1.1c0.4,0.2,0.6,0.5,0.8,0.9C178.4,54.5,178.5,55,178.4,55.5z M177.7,55.5
		c0-0.4,0-0.8-0.2-1.2c-0.2-0.6-0.6-0.9-1.2-0.9c-0.6,0-1,0.3-1.2,0.9c-0.2,0.8-0.2,1.5,0,2.3c0.2,0.6,0.5,0.8,1.1,0.8
		c0.7,0,1-0.2,1.3-0.8C177.6,56.3,177.6,55.9,177.7,55.5z"/>
	<path fill="#FFFFFF" d="M102,55.5c0,0.5-0.1,1-0.3,1.4c-0.3,0.8-0.9,1.2-1.8,1.2c-0.2,0-0.5,0-0.7,0c-0.7-0.1-1.1-0.6-1.4-1.2
		c-0.3-0.9-0.3-1.8,0-2.7c0.6-1.5,2.3-1.5,3.1-1c0.4,0.2,0.6,0.6,0.8,1C102,54.6,102,55,102,55.5z M101.2,55.6c0-0.4,0-0.8-0.1-1.2
		c-0.2-0.6-0.6-0.9-1.2-0.9c-0.6,0-1,0.3-1.2,0.9c-0.2,0.8-0.2,1.5,0,2.3c0.1,0.3,0.2,0.5,0.5,0.7c0.7,0.4,1.7,0.1,1.9-0.8
		C101.2,56.3,101.2,55.9,101.2,55.6z"/>
	<path fill="#FFFFFF" d="M127,55.6c0-0.5,0.1-1,0.2-1.4c0.6-1.4,2.2-1.5,3-1c0.5,0.3,0.7,0.7,0.9,1.2c0.2,0.7,0.2,1.4,0,2.2
		c-0.4,1.3-1.7,2-3,1.4c-0.5-0.2-0.8-0.5-0.9-1c-0.1-0.2-0.1-0.3-0.2-0.5C127,56.2,127,55.9,127,55.6z M127.8,55.5
		c0,0.3,0,0.6,0.1,0.9c0.2,0.8,0.6,1.1,1.4,1c0.5,0,0.9-0.3,1-0.7c0.3-0.8,0.3-1.7,0-2.5c-0.1-0.3-0.3-0.6-0.7-0.7
		c-0.8-0.3-1.5,0.1-1.7,0.9C127.8,54.8,127.8,55.1,127.8,55.5z"/>
	<path fill="#FFFFFF" d="M190,55.6c-0.4,0-0.8,0-1.3,0c-0.3,0-0.3,0-0.3,0.3c0,0.1,0,0.1,0,0.2c0.1,1.1,0.7,1.5,1.8,1.4
		c0.3,0,0.6-0.1,0.8-0.2c0.1-0.1,0.2,0,0.2,0.1c0.2,0.5,0.2,0.5-0.3,0.7c-0.5,0.2-1.1,0.2-1.6,0.1c-0.9-0.1-1.5-0.8-1.7-1.8
		c-0.1-0.6-0.1-1.3,0.1-1.9c0.1-0.3,0.2-0.6,0.4-0.8c0.7-1,2.1-0.9,2.7-0.4c0.3,0.2,0.4,0.5,0.5,0.7c0.2,0.5,0.2,1,0.1,1.5
		c0,0.2-0.1,0.2-0.2,0.2C190.9,55.6,190.5,55.6,190,55.6z M188.5,55c0.1,0.1,0.2,0,0.4,0c0.4,0,0.9,0,1.3,0c0.7,0,0.6,0,0.6-0.7
		c0-0.1-0.1-0.3-0.1-0.4c-0.1-0.2-0.2-0.3-0.3-0.4c-0.6-0.4-1.5-0.1-1.7,0.6C188.6,54.5,188.5,54.7,188.5,55z"/>
	<path fill="#FFFFFF" d="M148.3,57.2C148.3,57.2,148.3,57.2,148.3,57.2c0.3,0.6,0.3,0.7-0.3,0.9c-0.6,0.2-1.1,0.2-1.7,0
		c-0.7-0.2-1.1-0.6-1.3-1.2c-0.3-0.9-0.3-1.9,0.1-2.8c0.5-1.3,1.9-1.4,2.7-1c0.5,0.2,0.7,0.6,0.8,1.1c0.1,0.4,0.1,0.8,0.1,1.1
		c0,0.3,0,0.3-0.3,0.3c-0.8,0-1.5,0-2.3,0c-0.5,0-0.5,0-0.5,0.5c0,0.2,0,0.3,0.1,0.5c0.1,0.4,0.4,0.7,0.8,0.8c0.5,0.1,1,0.1,1.5-0.1
		C148.1,57.2,148.2,57.2,148.3,57.2z M146.7,55.1c0.2,0,0.3,0,0.5,0c0.7,0,0.7,0,0.6-0.8c0,0,0,0,0,0c-0.1-0.5-0.4-0.7-0.8-0.8
		c-0.5-0.1-0.9,0.1-1.2,0.5c-0.2,0.3-0.2,0.6-0.2,0.9c0,0.2,0,0.2,0.2,0.2C146.1,55.1,146.4,55.1,146.7,55.1z"/>
	<path fill="#FFFFFF" d="M133.7,53.4c0.4-0.3,0.8-0.5,1.3-0.6c0.3,0,0.5,0,0.7,0.1c0.4,0.1,0.7,0.4,0.8,0.8c0.1,0.2,0.1,0.4,0.1,0.6
		c0,1.1,0,2.2,0,3.3c0,0.3,0,0.3-0.3,0.3c0,0-0.1,0-0.1,0c-0.3,0-0.3,0-0.3-0.3c0-0.4,0-0.8,0-1.2c0-0.7,0-1.4,0-2.1
		c0-0.7-0.3-1-1-0.9c-0.4,0-0.7,0.1-1,0.3c-0.2,0.1-0.3,0.2-0.3,0.5c0,1.1,0,2.2,0,3.3c0,0.1,0,0.2,0,0.3c0,0.1-0.1,0.2-0.2,0.2
		c0,0,0,0,0,0c-0.6,0-0.5,0.1-0.5-0.5c0-1.4,0-2.8,0-4.2c0-0.4,0-0.4,0.4-0.4c0,0,0.1,0,0.1,0c0.1,0,0.2,0,0.2,0.2
		C133.7,53.2,133.6,53.3,133.7,53.4z"/>
	<path fill="#FFFFFF" d="M89.7,53.4c0.1-0.1,0.2-0.1,0.3-0.2c0.5-0.3,1-0.4,1.5-0.3c0.6,0.1,1,0.4,1.1,1c0,0.1,0,0.3,0,0.4
		c0,1.1,0,2.3,0,3.4c0,0.3,0,0.3-0.3,0.3c0,0-0.1,0-0.1,0c-0.3,0-0.3,0-0.3-0.3c0-0.4,0-0.7,0-1.1c0-0.7,0-1.4,0-2.2
		c0-0.7-0.3-1-1-0.9c-0.4,0-0.7,0.1-1,0.3c-0.2,0.1-0.3,0.2-0.3,0.4c0,1.1,0,2.2,0,3.3c0,0.1,0,0.2,0,0.3c0,0.2,0,0.2-0.2,0.2
		c-0.6,0-0.5,0-0.5-0.5c0-1.4,0-2.8,0-4.1c0-0.1,0-0.2,0-0.3c0-0.1,0.1-0.2,0.2-0.2c0,0,0.1,0,0.1,0C89.6,52.9,89.6,52.9,89.7,53.4
		C89.7,53.3,89.7,53.4,89.7,53.4z"/>
	<path fill="#FFFFFF" d="M161.3,53.4c0.4-0.3,0.8-0.5,1.3-0.5c0.1,0,0.2,0,0.3,0c0.9,0,1.3,0.5,1.4,1.4c0,0.2,0,0.4,0,0.7
		c0,1,0,1.9,0,2.9c0,0.3,0,0.3-0.3,0.3c-0.5,0-0.5,0.1-0.5-0.5c0-1,0-1.9,0-2.9c0-0.1,0-0.2,0-0.3c0-0.6-0.3-0.9-0.9-0.9
		c-0.4,0-0.8,0.1-1.1,0.3c-0.2,0.1-0.3,0.2-0.3,0.5c0,1.1,0,2.2,0,3.3c0,0.1,0,0.2,0,0.3c0,0.1-0.1,0.2-0.2,0.2c0,0,0,0-0.1,0
		c-0.6,0-0.5,0-0.5-0.5c0-1.4,0-2.8,0-4.2c0-0.5,0-0.4,0.4-0.4c0.4,0,0.4,0,0.4,0.3C161.3,53.3,161.3,53.3,161.3,53.4z"/>
	<path fill="#FFFFFF" d="M141.6,55.1c0-0.9,0-1.7,0-2.6c0-0.4,0-0.4-0.4-0.4c-0.4,0-0.7,0-1.1,0c-0.2,0-0.3-0.1-0.3-0.3c0,0,0,0,0,0
		c0-0.4,0-0.4,0.4-0.4c1.2,0,2.4,0,3.6,0c0.1,0,0.2,0,0.3,0c0.1,0,0.1,0,0.1,0.1c0,0.2,0,0.3-0.1,0.5c0,0.1-0.1,0.1-0.2,0.1
		c-0.4,0-0.8,0-1.2,0c-0.3,0-0.3,0-0.3,0.3c0,1.7,0,3.3,0,5c0,0.1,0,0.2,0,0.3c0,0.1-0.1,0.2-0.2,0.2c-0.6,0-0.6,0.1-0.6-0.6
		C141.6,56.7,141.6,55.9,141.6,55.1z"/>
	<path fill="#FFFFFF" d="M194.1,58.1c-0.4,0-0.7-0.1-1.1-0.2c-0.3-0.1-0.3-0.1-0.2-0.4c0,0,0,0,0,0c0.1-0.3,0.1-0.3,0.4-0.2
		c0.4,0.1,0.8,0.2,1.3,0.2c0.4,0,0.6-0.2,0.7-0.5c0.1-0.4,0-0.7-0.3-0.9c-0.2-0.2-0.5-0.3-0.7-0.4c-0.2-0.1-0.5-0.2-0.7-0.3
		c-1-0.6-0.7-1.8,0-2.2c0.3-0.2,0.5-0.3,0.8-0.3c0.4-0.1,0.9,0,1.3,0.1c0.2,0,0.3,0.1,0.2,0.3c0,0,0,0.1,0,0.1c0,0.3,0,0.3-0.4,0.3
		c-0.4-0.1-0.8-0.2-1.3-0.1c-0.3,0.1-0.5,0.2-0.5,0.5c-0.1,0.3,0,0.5,0.2,0.7c0.2,0.1,0.4,0.2,0.6,0.3c0.3,0.1,0.6,0.3,0.9,0.5
		c0.5,0.4,0.7,0.9,0.5,1.5c-0.1,0.5-0.5,0.8-1,1C194.7,58.1,194.4,58.1,194.1,58.1z"/>
	<path fill="#FFFFFF" d="M94.9,55.8c0-0.6,0-1.3,0-1.9c0-0.3,0-0.3-0.3-0.3c-0.1,0-0.3,0.1-0.3-0.1c0-0.2,0-0.3,0-0.5
		c0-0.1,0.1-0.1,0.1-0.1c0.1,0,0.2,0,0.3,0c0.2,0,0.2-0.1,0.2-0.2c0-0.2,0-0.4,0-0.6c0.1-0.9,0.9-1.5,1.7-1.3c0.2,0,0.2,0.1,0.2,0.2
		c0,0.1,0,0.1,0,0.2c0,0.2-0.1,0.3-0.3,0.3c-0.7,0-0.8,0.1-0.8,0.8c0,0.7-0.1,0.6,0.6,0.6c0,0,0.1,0,0.1,0c0.4,0,0.5,0.2,0.3,0.5
		c0,0.1-0.1,0.1-0.2,0.1c-0.2,0-0.4,0-0.6,0c-0.2,0-0.3,0.1-0.3,0.3c0,0.8,0,1.6,0,2.4c0,0.5,0,1,0,1.5c0,0.2-0.1,0.3-0.3,0.3
		c-0.6,0-0.5,0.1-0.5-0.5C94.8,57,94.9,56.4,94.9,55.8z"/>
	<path fill="#FFFFFF" d="M153.2,57.2c0.3,0.8,0.2,0.7-0.4,0.9c-0.4,0.1-0.8,0.1-1.2,0.1c-0.9-0.1-1.5-0.7-1.6-1.6
		c-0.2-0.7-0.1-1.5,0.1-2.2c0.3-1,1.1-1.6,2.2-1.5c0.3,0,0.6,0.1,0.8,0.1c0.1,0,0.2,0.1,0.2,0.3c0,0.1,0,0.2-0.1,0.3
		c-0.1,0.2-0.1,0.2-0.3,0.2c-0.3-0.1-0.7-0.1-1.1-0.1c-0.5,0-0.9,0.3-1,0.7c-0.3,0.8-0.3,1.6,0,2.4c0.1,0.4,0.4,0.5,0.8,0.6
		c0.5,0.1,0.9,0,1.3-0.1C153,57.3,153.1,57.2,153.2,57.2z"/>
	<path fill="#FFFFFF" d="M123.2,57.3c0.2,0.7,0.2,0.7-0.5,0.8c-0.2,0-0.4,0-0.6,0c-0.5-0.1-0.9-0.3-1-0.9c-0.1-0.2-0.1-0.5-0.1-0.7
		c0-0.9,0-1.7,0-2.6c0-0.3,0-0.3-0.3-0.3c-0.1,0-0.2,0.1-0.3-0.1c0-0.2-0.1-0.3,0-0.5c0-0.1,0.2,0,0.3-0.1c0.3,0,0.3,0,0.3-0.3
		c0-0.2,0-0.4,0-0.6c0-0.1,0-0.2,0.2-0.2c0.2,0,0.3-0.1,0.5-0.1c0.1,0.3,0,0.6,0,0.9c0,0.3,0,0.3,0.3,0.3c0.2,0,0.5,0,0.7,0
		c0.2,0,0.2,0,0.2,0.2c0,0.1,0,0.1,0,0.2c0,0.1-0.1,0.2-0.2,0.2c-0.3,0-0.5,0-0.8,0c-0.2,0-0.3,0-0.3,0.2c0,1,0,1.9,0,2.9
		c0,0.5,0.2,0.7,0.8,0.7C122.8,57.4,123,57.4,123.2,57.3z"/>
	<path fill="#FFFFFF" d="M172.5,54.4c0,1.1,0,2.2,0,3.3c0,0.3,0,0.3-0.4,0.3c-0.1,0-0.1,0-0.2,0c-0.1,0-0.2,0-0.2-0.2
		c0-0.1,0-0.1,0-0.2c0-2.1,0-4.3,0-6.4c0-0.1,0-0.1,0-0.2c0-0.1,0-0.2,0.2-0.2c0,0,0,0,0,0c0.6,0,0.5-0.1,0.5,0.5
		C172.5,52.3,172.5,53.4,172.5,54.4z"/>
	<path fill="#FFFFFF" d="M86.9,54.8c0,1,0,1.9,0,2.9c0,0.4,0,0.4-0.4,0.4c-0.5,0-0.4,0.1-0.4-0.4c0-1.9,0-3.8,0-5.7
		c0-0.1,0-0.1,0-0.2c0,0,0-0.1,0-0.1c0.1-0.3,0.3-0.1,0.5-0.1c0.1,0,0.3-0.1,0.3,0.2c0,0.1,0,0.2,0,0.3
		C86.9,52.9,86.9,53.8,86.9,54.8z"/>
	<path fill="#FFFFFF" d="M104.4,53.5c0.2-0.1,0.4-0.3,0.6-0.4c0.3-0.2,0.6-0.3,0.9-0.2c0.2,0,0.3,0.1,0.2,0.3c0,0,0,0.1,0,0.1
		c-0.1,0.4,0,0.4-0.4,0.3c-0.4,0-0.7,0.1-1,0.3c-0.2,0.1-0.2,0.3-0.2,0.5c0,1,0,2,0,3c0,0.1,0,0.2,0,0.3c0,0,0,0.1,0,0.1
		c0,0.2-0.2,0.1-0.4,0.1c-0.1,0-0.3,0.1-0.4-0.1c0-0.1,0-0.1,0-0.2c0-1.4,0-2.9,0-4.3c0-0.4,0-0.4,0.4-0.4c0.1,0,0.1,0,0.2,0
		c0.1,0,0.2,0.1,0.2,0.2C104.4,53.2,104.4,53.4,104.4,53.5z"/>
	<path fill="#FFFFFF" d="M124.6,55.5c0-0.7,0-1.5,0-2.2c0-0.3,0-0.3,0.3-0.3c0,0,0,0,0,0c0.4,0,0.4,0,0.4,0.4c0,1.4,0,2.9,0,4.3
		c0,0.1,0,0.2,0,0.2c0,0.3-0.3,0.1-0.4,0.1c-0.1,0-0.3,0.1-0.3-0.1c0-0.1,0-0.2,0-0.3C124.6,56.9,124.6,56.2,124.6,55.5z"/>
	<path fill="#FFFFFF" d="M185.3,55.5c0-0.7,0-1.5,0-2.2c0-0.3,0-0.3,0.3-0.3c0.5,0,0.5,0,0.5,0.4c0,1.4,0,2.8,0,4.2
		c0,0.1,0,0.1,0,0.2c0,0.1-0.1,0.2-0.2,0.2c-0.7,0-0.5,0-0.5-0.5C185.3,56.9,185.3,56.2,185.3,55.5z"/>
	<path fill="#FFFFFF" d="M186.2,51.5c0,0.3-0.2,0.5-0.5,0.5c-0.3,0-0.4-0.2-0.4-0.5c0-0.3,0.2-0.5,0.4-0.5
		C186,51,186.2,51.2,186.2,51.5z"/>
	<path fill="#FFFFFF" d="M125,52c-0.3,0-0.4-0.2-0.4-0.5c0-0.3,0.2-0.5,0.4-0.5c0.3,0,0.4,0.2,0.4,0.5C125.4,51.8,125.3,52,125,52z"
		/>
</g>
</svg>
